<mxfile host="app.diagrams.net" modified="2022-09-08T01:58:03.538Z" agent="5.0 (Macintosh; Intel Mac OS X 10_15_7) AppleWebKit/537.36 (KHTML, like Gecko) Chrome/104.0.0.0 Safari/537.36" etag="axN4OLpTgnpV9W5kwLL0" version="20.2.8" type="github">
  <diagram id="w5sScNkkCCziSj085yC-" name="ページ1">
    <mxGraphModel dx="396" dy="683" grid="1" gridSize="10" guides="1" tooltips="1" connect="1" arrows="1" fold="1" page="1" pageScale="1" pageWidth="827" pageHeight="1169" math="0" shadow="0">
      <root>
        <mxCell id="0" />
        <mxCell id="1" parent="0" />
        <mxCell id="KvgZhFsCV-zlKZ-adcRx-1" value="開始" style="rounded=1;whiteSpace=wrap;html=1;" vertex="1" parent="1">
          <mxGeometry x="140" y="20" width="120" height="60" as="geometry" />
        </mxCell>
        <mxCell id="KvgZhFsCV-zlKZ-adcRx-2" value="具材として野菜を用意する。" style="rounded=0;whiteSpace=wrap;html=1;" vertex="1" parent="1">
          <mxGeometry x="120" y="120" width="160" height="60" as="geometry" />
        </mxCell>
        <mxCell id="KvgZhFsCV-zlKZ-adcRx-3" value="" style="endArrow=classic;html=1;rounded=0;exitX=0.5;exitY=1;exitDx=0;exitDy=0;entryX=0.5;entryY=0;entryDx=0;entryDy=0;" edge="1" parent="1" source="KvgZhFsCV-zlKZ-adcRx-1" target="KvgZhFsCV-zlKZ-adcRx-2">
          <mxGeometry width="50" height="50" relative="1" as="geometry">
            <mxPoint x="180" y="370" as="sourcePoint" />
            <mxPoint x="230" y="320" as="targetPoint" />
          </mxGeometry>
        </mxCell>
        <mxCell id="KvgZhFsCV-zlKZ-adcRx-4" value="人参が好き" style="rhombus;whiteSpace=wrap;html=1;" vertex="1" parent="1">
          <mxGeometry x="115" y="240" width="170" height="80" as="geometry" />
        </mxCell>
        <mxCell id="KvgZhFsCV-zlKZ-adcRx-5" value="すりおろす" style="rounded=0;whiteSpace=wrap;html=1;" vertex="1" parent="1">
          <mxGeometry y="360" width="120" height="60" as="geometry" />
        </mxCell>
        <mxCell id="KvgZhFsCV-zlKZ-adcRx-6" value="ざく切りにする" style="rounded=0;whiteSpace=wrap;html=1;" vertex="1" parent="1">
          <mxGeometry x="280" y="360" width="120" height="60" as="geometry" />
        </mxCell>
        <mxCell id="KvgZhFsCV-zlKZ-adcRx-7" value="" style="endArrow=classic;html=1;rounded=0;exitX=0;exitY=0.5;exitDx=0;exitDy=0;entryX=0.417;entryY=-0.067;entryDx=0;entryDy=0;entryPerimeter=0;" edge="1" parent="1" source="KvgZhFsCV-zlKZ-adcRx-4" target="KvgZhFsCV-zlKZ-adcRx-5">
          <mxGeometry width="50" height="50" relative="1" as="geometry">
            <mxPoint x="180" y="370" as="sourcePoint" />
            <mxPoint x="230" y="320" as="targetPoint" />
            <Array as="points">
              <mxPoint x="50" y="280" />
            </Array>
          </mxGeometry>
        </mxCell>
        <mxCell id="KvgZhFsCV-zlKZ-adcRx-8" value="" style="endArrow=classic;html=1;rounded=0;exitX=1;exitY=0.5;exitDx=0;exitDy=0;entryX=0.5;entryY=0;entryDx=0;entryDy=0;" edge="1" parent="1" source="KvgZhFsCV-zlKZ-adcRx-4" target="KvgZhFsCV-zlKZ-adcRx-6">
          <mxGeometry width="50" height="50" relative="1" as="geometry">
            <mxPoint x="180" y="370" as="sourcePoint" />
            <mxPoint x="230" y="320" as="targetPoint" />
            <Array as="points">
              <mxPoint x="340" y="280" />
            </Array>
          </mxGeometry>
        </mxCell>
        <mxCell id="KvgZhFsCV-zlKZ-adcRx-9" value="NO" style="text;html=1;align=center;verticalAlign=middle;resizable=0;points=[];autosize=1;strokeColor=none;fillColor=none;" vertex="1" parent="1">
          <mxGeometry x="80" y="285" width="40" height="30" as="geometry" />
        </mxCell>
        <mxCell id="KvgZhFsCV-zlKZ-adcRx-10" value="YES" style="text;html=1;align=center;verticalAlign=middle;resizable=0;points=[];autosize=1;strokeColor=none;fillColor=none;" vertex="1" parent="1">
          <mxGeometry x="260" y="290" width="50" height="30" as="geometry" />
        </mxCell>
        <mxCell id="KvgZhFsCV-zlKZ-adcRx-11" value="ほうれん草、ピーマン、なす、ブロッコリーを適当な大きさに切る" style="rounded=0;whiteSpace=wrap;html=1;" vertex="1" parent="1">
          <mxGeometry x="120" y="480" width="170" height="60" as="geometry" />
        </mxCell>
        <mxCell id="KvgZhFsCV-zlKZ-adcRx-12" value="" style="endArrow=classic;html=1;rounded=0;exitX=0.5;exitY=1;exitDx=0;exitDy=0;entryX=0.25;entryY=0;entryDx=0;entryDy=0;" edge="1" parent="1" source="KvgZhFsCV-zlKZ-adcRx-5" target="KvgZhFsCV-zlKZ-adcRx-11">
          <mxGeometry width="50" height="50" relative="1" as="geometry">
            <mxPoint x="180" y="480" as="sourcePoint" />
            <mxPoint x="230" y="430" as="targetPoint" />
          </mxGeometry>
        </mxCell>
        <mxCell id="KvgZhFsCV-zlKZ-adcRx-13" value="" style="endArrow=classic;html=1;rounded=0;exitX=0.5;exitY=1;exitDx=0;exitDy=0;entryX=0.75;entryY=0;entryDx=0;entryDy=0;" edge="1" parent="1" source="KvgZhFsCV-zlKZ-adcRx-6" target="KvgZhFsCV-zlKZ-adcRx-11">
          <mxGeometry width="50" height="50" relative="1" as="geometry">
            <mxPoint x="180" y="480" as="sourcePoint" />
            <mxPoint x="230" y="430" as="targetPoint" />
          </mxGeometry>
        </mxCell>
        <mxCell id="KvgZhFsCV-zlKZ-adcRx-15" value="具材の色合いは適当か？" style="rhombus;whiteSpace=wrap;html=1;" vertex="1" parent="1">
          <mxGeometry x="130" y="610" width="140" height="80" as="geometry" />
        </mxCell>
        <mxCell id="KvgZhFsCV-zlKZ-adcRx-16" value="" style="endArrow=classic;html=1;rounded=0;exitX=0.465;exitY=1.033;exitDx=0;exitDy=0;exitPerimeter=0;entryX=0.5;entryY=0;entryDx=0;entryDy=0;" edge="1" parent="1" source="KvgZhFsCV-zlKZ-adcRx-11" target="KvgZhFsCV-zlKZ-adcRx-15">
          <mxGeometry width="50" height="50" relative="1" as="geometry">
            <mxPoint x="180" y="650" as="sourcePoint" />
            <mxPoint x="230" y="600" as="targetPoint" />
          </mxGeometry>
        </mxCell>
        <mxCell id="KvgZhFsCV-zlKZ-adcRx-17" value="炒める" style="rounded=0;whiteSpace=wrap;html=1;" vertex="1" parent="1">
          <mxGeometry x="140" y="720" width="120" height="60" as="geometry" />
        </mxCell>
        <mxCell id="KvgZhFsCV-zlKZ-adcRx-18" value="" style="endArrow=classic;html=1;rounded=0;exitX=0.5;exitY=1;exitDx=0;exitDy=0;entryX=0.5;entryY=0;entryDx=0;entryDy=0;" edge="1" parent="1" source="KvgZhFsCV-zlKZ-adcRx-15" target="KvgZhFsCV-zlKZ-adcRx-17">
          <mxGeometry width="50" height="50" relative="1" as="geometry">
            <mxPoint x="180" y="650" as="sourcePoint" />
            <mxPoint x="230" y="600" as="targetPoint" />
          </mxGeometry>
        </mxCell>
        <mxCell id="KvgZhFsCV-zlKZ-adcRx-19" value="" style="endArrow=classic;html=1;rounded=0;exitX=0.5;exitY=1;exitDx=0;exitDy=0;entryX=0;entryY=0.5;entryDx=0;entryDy=0;" edge="1" parent="1" source="KvgZhFsCV-zlKZ-adcRx-17" target="KvgZhFsCV-zlKZ-adcRx-15">
          <mxGeometry width="50" height="50" relative="1" as="geometry">
            <mxPoint x="180" y="650" as="sourcePoint" />
            <mxPoint x="230" y="600" as="targetPoint" />
            <Array as="points">
              <mxPoint x="200" y="840" />
              <mxPoint x="80" y="840" />
              <mxPoint x="80" y="650" />
            </Array>
          </mxGeometry>
        </mxCell>
        <mxCell id="KvgZhFsCV-zlKZ-adcRx-20" value="NO" style="text;html=1;align=center;verticalAlign=middle;resizable=0;points=[];autosize=1;strokeColor=none;fillColor=none;" vertex="1" parent="1">
          <mxGeometry x="160" y="675" width="40" height="30" as="geometry" />
        </mxCell>
        <mxCell id="KvgZhFsCV-zlKZ-adcRx-21" value="適量の水を入れる" style="rounded=0;whiteSpace=wrap;html=1;" vertex="1" parent="1">
          <mxGeometry x="140" y="880" width="120" height="60" as="geometry" />
        </mxCell>
        <mxCell id="KvgZhFsCV-zlKZ-adcRx-22" value="" style="endArrow=classic;html=1;rounded=0;exitX=1;exitY=0.5;exitDx=0;exitDy=0;entryX=0.5;entryY=0;entryDx=0;entryDy=0;" edge="1" parent="1" source="KvgZhFsCV-zlKZ-adcRx-15" target="KvgZhFsCV-zlKZ-adcRx-21">
          <mxGeometry width="50" height="50" relative="1" as="geometry">
            <mxPoint x="180" y="650" as="sourcePoint" />
            <mxPoint x="230" y="600" as="targetPoint" />
            <Array as="points">
              <mxPoint x="320" y="650" />
              <mxPoint x="320" y="860" />
              <mxPoint x="200" y="860" />
            </Array>
          </mxGeometry>
        </mxCell>
        <mxCell id="KvgZhFsCV-zlKZ-adcRx-24" value="YES" style="text;html=1;align=center;verticalAlign=middle;resizable=0;points=[];autosize=1;strokeColor=none;fillColor=none;" vertex="1" parent="1">
          <mxGeometry x="235" y="660" width="50" height="30" as="geometry" />
        </mxCell>
        <mxCell id="KvgZhFsCV-zlKZ-adcRx-25" value="適度に煮詰まっているか？" style="rhombus;whiteSpace=wrap;html=1;" vertex="1" parent="1">
          <mxGeometry x="117.5" y="990" width="165" height="80" as="geometry" />
        </mxCell>
        <mxCell id="KvgZhFsCV-zlKZ-adcRx-26" value="" style="endArrow=classic;html=1;rounded=0;exitX=0.5;exitY=1;exitDx=0;exitDy=0;entryX=0.5;entryY=0;entryDx=0;entryDy=0;" edge="1" parent="1" source="KvgZhFsCV-zlKZ-adcRx-21" target="KvgZhFsCV-zlKZ-adcRx-25">
          <mxGeometry width="50" height="50" relative="1" as="geometry">
            <mxPoint x="180" y="950" as="sourcePoint" />
            <mxPoint x="230" y="900" as="targetPoint" />
          </mxGeometry>
        </mxCell>
        <mxCell id="KvgZhFsCV-zlKZ-adcRx-27" value="煮詰める" style="rounded=0;whiteSpace=wrap;html=1;" vertex="1" parent="1">
          <mxGeometry x="140" y="1120" width="120" height="60" as="geometry" />
        </mxCell>
        <mxCell id="KvgZhFsCV-zlKZ-adcRx-28" value="" style="endArrow=classic;html=1;rounded=0;exitX=0.5;exitY=1;exitDx=0;exitDy=0;entryX=0.5;entryY=0;entryDx=0;entryDy=0;" edge="1" parent="1" source="KvgZhFsCV-zlKZ-adcRx-25" target="KvgZhFsCV-zlKZ-adcRx-27">
          <mxGeometry width="50" height="50" relative="1" as="geometry">
            <mxPoint x="180" y="990" as="sourcePoint" />
            <mxPoint x="230" y="940" as="targetPoint" />
          </mxGeometry>
        </mxCell>
        <mxCell id="KvgZhFsCV-zlKZ-adcRx-29" value="" style="endArrow=classic;html=1;rounded=0;exitX=0.5;exitY=1;exitDx=0;exitDy=0;entryX=0;entryY=0.5;entryDx=0;entryDy=0;" edge="1" parent="1" source="KvgZhFsCV-zlKZ-adcRx-27" target="KvgZhFsCV-zlKZ-adcRx-25">
          <mxGeometry width="50" height="50" relative="1" as="geometry">
            <mxPoint x="180" y="990" as="sourcePoint" />
            <mxPoint x="230" y="940" as="targetPoint" />
            <Array as="points">
              <mxPoint x="200" y="1200" />
              <mxPoint x="80" y="1200" />
              <mxPoint x="80" y="1030" />
            </Array>
          </mxGeometry>
        </mxCell>
        <mxCell id="KvgZhFsCV-zlKZ-adcRx-30" value="NO" style="text;html=1;align=center;verticalAlign=middle;resizable=0;points=[];autosize=1;strokeColor=none;fillColor=none;" vertex="1" parent="1">
          <mxGeometry x="150" y="1055" width="40" height="30" as="geometry" />
        </mxCell>
        <mxCell id="KvgZhFsCV-zlKZ-adcRx-31" value="カレーのルーを入れる" style="rounded=0;whiteSpace=wrap;html=1;" vertex="1" parent="1">
          <mxGeometry x="130" y="1260" width="140" height="60" as="geometry" />
        </mxCell>
        <mxCell id="KvgZhFsCV-zlKZ-adcRx-32" value="" style="endArrow=classic;html=1;rounded=0;exitX=1;exitY=0.5;exitDx=0;exitDy=0;entryX=0.5;entryY=0;entryDx=0;entryDy=0;" edge="1" parent="1" source="KvgZhFsCV-zlKZ-adcRx-25" target="KvgZhFsCV-zlKZ-adcRx-31">
          <mxGeometry width="50" height="50" relative="1" as="geometry">
            <mxPoint x="180" y="1250" as="sourcePoint" />
            <mxPoint x="230" y="1200" as="targetPoint" />
            <Array as="points">
              <mxPoint x="320" y="1030" />
              <mxPoint x="320" y="1230" />
              <mxPoint x="200" y="1230" />
            </Array>
          </mxGeometry>
        </mxCell>
        <mxCell id="KvgZhFsCV-zlKZ-adcRx-33" value="YES" style="text;html=1;align=center;verticalAlign=middle;resizable=0;points=[];autosize=1;strokeColor=none;fillColor=none;" vertex="1" parent="1">
          <mxGeometry x="240" y="1050" width="50" height="30" as="geometry" />
        </mxCell>
        <mxCell id="KvgZhFsCV-zlKZ-adcRx-34" value="ルーが溶けてトロトロか？" style="rhombus;whiteSpace=wrap;html=1;" vertex="1" parent="1">
          <mxGeometry x="122.5" y="1370" width="155" height="80" as="geometry" />
        </mxCell>
        <mxCell id="KvgZhFsCV-zlKZ-adcRx-35" value="" style="endArrow=classic;html=1;rounded=0;exitX=0.5;exitY=1;exitDx=0;exitDy=0;entryX=0.5;entryY=0;entryDx=0;entryDy=0;" edge="1" parent="1" source="KvgZhFsCV-zlKZ-adcRx-31" target="KvgZhFsCV-zlKZ-adcRx-34">
          <mxGeometry width="50" height="50" relative="1" as="geometry">
            <mxPoint x="180" y="1320" as="sourcePoint" />
            <mxPoint x="230" y="1270" as="targetPoint" />
          </mxGeometry>
        </mxCell>
        <mxCell id="KvgZhFsCV-zlKZ-adcRx-36" value="弱火で煮詰める" style="rounded=0;whiteSpace=wrap;html=1;" vertex="1" parent="1">
          <mxGeometry x="140" y="1500" width="120" height="60" as="geometry" />
        </mxCell>
        <mxCell id="KvgZhFsCV-zlKZ-adcRx-37" value="" style="endArrow=classic;html=1;rounded=0;exitX=0.5;exitY=1;exitDx=0;exitDy=0;entryX=0.5;entryY=0;entryDx=0;entryDy=0;" edge="1" parent="1" source="KvgZhFsCV-zlKZ-adcRx-34" target="KvgZhFsCV-zlKZ-adcRx-36">
          <mxGeometry width="50" height="50" relative="1" as="geometry">
            <mxPoint x="180" y="1500" as="sourcePoint" />
            <mxPoint x="230" y="1450" as="targetPoint" />
          </mxGeometry>
        </mxCell>
        <mxCell id="KvgZhFsCV-zlKZ-adcRx-38" value="" style="endArrow=classic;html=1;rounded=0;exitX=0.5;exitY=1;exitDx=0;exitDy=0;entryX=0;entryY=0.5;entryDx=0;entryDy=0;" edge="1" parent="1" source="KvgZhFsCV-zlKZ-adcRx-36" target="KvgZhFsCV-zlKZ-adcRx-34">
          <mxGeometry width="50" height="50" relative="1" as="geometry">
            <mxPoint x="180" y="1500" as="sourcePoint" />
            <mxPoint x="230" y="1450" as="targetPoint" />
            <Array as="points">
              <mxPoint x="200" y="1590" />
              <mxPoint x="80" y="1590" />
              <mxPoint x="80" y="1410" />
            </Array>
          </mxGeometry>
        </mxCell>
        <mxCell id="KvgZhFsCV-zlKZ-adcRx-39" value="NO" style="text;html=1;align=center;verticalAlign=middle;resizable=0;points=[];autosize=1;strokeColor=none;fillColor=none;" vertex="1" parent="1">
          <mxGeometry x="140" y="1435" width="40" height="30" as="geometry" />
        </mxCell>
        <mxCell id="KvgZhFsCV-zlKZ-adcRx-40" value="辛いものが好き" style="rhombus;whiteSpace=wrap;html=1;" vertex="1" parent="1">
          <mxGeometry x="140" y="1640" width="120" height="80" as="geometry" />
        </mxCell>
        <mxCell id="KvgZhFsCV-zlKZ-adcRx-41" value="" style="endArrow=classic;html=1;rounded=0;exitX=1;exitY=0.5;exitDx=0;exitDy=0;entryX=0.5;entryY=0;entryDx=0;entryDy=0;" edge="1" parent="1" source="KvgZhFsCV-zlKZ-adcRx-34" target="KvgZhFsCV-zlKZ-adcRx-40">
          <mxGeometry width="50" height="50" relative="1" as="geometry">
            <mxPoint x="180" y="1490" as="sourcePoint" />
            <mxPoint x="230" y="1440" as="targetPoint" />
            <Array as="points">
              <mxPoint x="330" y="1410" />
              <mxPoint x="330" y="1620" />
              <mxPoint x="200" y="1620" />
            </Array>
          </mxGeometry>
        </mxCell>
        <mxCell id="KvgZhFsCV-zlKZ-adcRx-42" value="YES" style="text;html=1;align=center;verticalAlign=middle;resizable=0;points=[];autosize=1;strokeColor=none;fillColor=none;" vertex="1" parent="1">
          <mxGeometry x="245" y="1415" width="50" height="30" as="geometry" />
        </mxCell>
        <mxCell id="KvgZhFsCV-zlKZ-adcRx-43" value="カレー粉を追加する" style="rounded=0;whiteSpace=wrap;html=1;" vertex="1" parent="1">
          <mxGeometry x="140" y="1754" width="120" height="60" as="geometry" />
        </mxCell>
        <mxCell id="KvgZhFsCV-zlKZ-adcRx-44" value="" style="endArrow=classic;html=1;rounded=0;exitX=0.5;exitY=1;exitDx=0;exitDy=0;entryX=0.5;entryY=0;entryDx=0;entryDy=0;" edge="1" parent="1" source="KvgZhFsCV-zlKZ-adcRx-40" target="KvgZhFsCV-zlKZ-adcRx-43">
          <mxGeometry width="50" height="50" relative="1" as="geometry">
            <mxPoint x="180" y="1600" as="sourcePoint" />
            <mxPoint x="230" y="1550" as="targetPoint" />
          </mxGeometry>
        </mxCell>
        <mxCell id="KvgZhFsCV-zlKZ-adcRx-45" value="終了" style="rounded=1;whiteSpace=wrap;html=1;" vertex="1" parent="1">
          <mxGeometry x="140" y="1900" width="120" height="60" as="geometry" />
        </mxCell>
        <mxCell id="KvgZhFsCV-zlKZ-adcRx-46" value="" style="endArrow=classic;html=1;rounded=0;exitX=0.5;exitY=1;exitDx=0;exitDy=0;entryX=0.5;entryY=0;entryDx=0;entryDy=0;" edge="1" parent="1" source="KvgZhFsCV-zlKZ-adcRx-43" target="KvgZhFsCV-zlKZ-adcRx-45">
          <mxGeometry width="50" height="50" relative="1" as="geometry">
            <mxPoint x="180" y="1750" as="sourcePoint" />
            <mxPoint x="230" y="1700" as="targetPoint" />
          </mxGeometry>
        </mxCell>
        <mxCell id="KvgZhFsCV-zlKZ-adcRx-47" value="YES" style="text;html=1;align=center;verticalAlign=middle;resizable=0;points=[];autosize=1;strokeColor=none;fillColor=none;" vertex="1" parent="1">
          <mxGeometry x="145" y="1715" width="50" height="30" as="geometry" />
        </mxCell>
        <mxCell id="KvgZhFsCV-zlKZ-adcRx-48" value="" style="endArrow=classic;html=1;rounded=0;exitX=1;exitY=0.5;exitDx=0;exitDy=0;" edge="1" parent="1" source="KvgZhFsCV-zlKZ-adcRx-40">
          <mxGeometry width="50" height="50" relative="1" as="geometry">
            <mxPoint x="180" y="1750" as="sourcePoint" />
            <mxPoint x="200" y="1900" as="targetPoint" />
            <Array as="points">
              <mxPoint x="320" y="1680" />
              <mxPoint x="320" y="1860" />
              <mxPoint x="200" y="1860" />
            </Array>
          </mxGeometry>
        </mxCell>
        <mxCell id="KvgZhFsCV-zlKZ-adcRx-49" value="NO" style="text;html=1;align=center;verticalAlign=middle;resizable=0;points=[];autosize=1;strokeColor=none;fillColor=none;" vertex="1" parent="1">
          <mxGeometry x="240" y="1685" width="40" height="30" as="geometry" />
        </mxCell>
      </root>
    </mxGraphModel>
  </diagram>
</mxfile>
